<?xml version="1.0" encoding="UTF-8" standalone="no"?>
<!-- Generator: Adobe Illustrator 16.0.0, SVG Export Plug-In . SVG Version: 6.00 Build 0)  -->

<svg
   xmlns:dc="http://purl.org/dc/elements/1.1/"
   xmlns:cc="http://creativecommons.org/ns#"
   xmlns:rdf="http://www.w3.org/1999/02/22-rdf-syntax-ns#"
   xmlns:svg="http://www.w3.org/2000/svg"
   xmlns="http://www.w3.org/2000/svg"
   xmlns:sodipodi="http://sodipodi.sourceforge.net/DTD/sodipodi-0.dtd"
   xmlns:inkscape="http://www.inkscape.org/namespaces/inkscape"
   version="1.1"
   id="Capa_1"
   x="0px"
   y="0px"
   width="664.94482"
   height="450.47052"
   viewBox="0 0 664.94483 450.47052"
   xml:space="preserve"
   sodipodi:docname="mouse-move.svg"
   inkscape:version="0.92.4 (5da689c313, 2019-01-14)"><metadata
   id="metadata49"><rdf:RDF><cc:Work
       rdf:about=""><dc:format>image/svg+xml</dc:format><dc:type
         rdf:resource="http://purl.org/dc/dcmitype/StillImage" /><dc:title /></cc:Work></rdf:RDF></metadata><defs
   id="defs47" /><sodipodi:namedview
   pagecolor="#ffffff"
   bordercolor="#666666"
   borderopacity="1"
   objecttolerance="10"
   gridtolerance="10"
   guidetolerance="10"
   inkscape:pageopacity="0"
   inkscape:pageshadow="2"
   inkscape:window-width="1920"
   inkscape:window-height="1051"
   id="namedview45"
   showgrid="false"
   showguides="true"
   inkscape:zoom="1.3468103"
   inkscape:cx="274.79341"
   inkscape:cy="282.75044"
   inkscape:window-x="-9"
   inkscape:window-y="-9"
   inkscape:window-maximized="1"
   inkscape:current-layer="Capa_1" />
<g
   id="g12"
   transform="translate(108.89445,5.2910864e-4)">
	<path
   fill="ffffff"
   d="m 237.298,99.533 c -0.301,-0.34 -0.562,-0.677 -0.916,-0.999 -3.937,-3.535 -4.043,-2.491 0.266,-6.463 3.192,-2.929 7.063,-5.222 10.574,-7.755 C 256.508,77.605 262.62,68.617 266.751,57.96 276.02,34.033 248.707,17.503 235,3.344 c -9.904,-10.247 -25.496,5.382 -15.604,15.604 7.643,7.912 17.489,14.328 24.14,23.123 7.453,9.848 -3.901,20.712 -11.68,26.194 -12.026,8.473 -22.423,19.727 -20.02,31.794 -53.971,5.042 -103.87,34.623 -103.87,86.767 V 333.2 c 0,64.664 52.603,117.27 117.27,117.27 64.663,0 117.27,-52.605 117.27,-117.27 V 186.817 c 0.004,-56.929 -52.963,-84.5 -105.208,-87.284 z m -107.254,87.284 c 0,-38.707 42.017,-61.117 85.535,-64.841 v 135.005 c -39.697,-1.998 -71.928,-11.042 -85.535,-15.457 z m 190.389,146.377 c 0,52.5 -42.705,95.199 -95.192,95.199 -52.488,0 -95.196,-42.699 -95.196,-95.199 V 264.73 c 19.713,5.958 56.817,14.995 100.676,14.995 28.088,0 58.93,-3.759 89.713,-14.352 v 67.821 z m 0,-91.298 c -27.916,10.675 -56.424,14.849 -82.78,15.415 v -135.66 c 42.569,2.553 82.78,22.969 82.78,65.175 z"
   id="path10"
   inkscape:connector-curvature="0"
   sodipodi:nodetypes="ccccccccccssssccscccscsscsccccccsc" />
</g>
<g
   id="g14"
   transform="translate(108.89445,5.2910864e-4)">
</g>
<g
   id="g16"
   transform="translate(108.89445,5.2910864e-4)">
</g>
<g
   id="g18"
   transform="translate(108.89445,5.2910864e-4)">
</g>
<g
   id="g20"
   transform="translate(108.89445,5.2910864e-4)">
</g>
<g
   id="g22"
   transform="translate(108.89445,5.2910864e-4)">
</g>
<g
   id="g24"
   transform="translate(108.89445,5.2910864e-4)">
</g>
<g
   id="g26"
   transform="translate(108.89445,5.2910864e-4)">
</g>
<g
   id="g28"
   transform="translate(108.89445,5.2910864e-4)">
</g>
<g
   id="g30"
   transform="translate(108.89445,5.2910864e-4)">
</g>
<g
   id="g32"
   transform="translate(108.89445,5.2910864e-4)">
</g>
<g
   id="g34"
   transform="translate(108.89445,5.2910864e-4)">
</g>
<g
   id="g36"
   transform="translate(108.89445,5.2910864e-4)">
</g>
<g
   id="g38"
   transform="translate(108.89445,5.2910864e-4)">
</g>
<g
   id="g40"
   transform="translate(108.89445,5.2910864e-4)">
</g>
<g
   id="g42"
   transform="translate(108.89445,5.2910864e-4)">
</g>
<path
   fill="ffffff"
   sodipodi:type="star"
   id="path3754"
   sodipodi:sides="3"
   sodipodi:cx="-373.81659"
   sodipodi:cy="-211.05937"
   sodipodi:r1="61.649868"
   sodipodi:r2="30.824934"
   sodipodi:arg1="2.6177748"
   sodipodi:arg2="3.6649724"
   inkscape:flatsided="false"
   inkscape:rounded="0"
   inkscape:randomized="0"
   d="m -427.20019,-180.22274 26.68505,-46.24325 26.68504,-46.24325 26.70531,46.23155 26.7053,46.23155 -53.39035,0.0117 z"
   inkscape:transform-center-x="-22.107946"
   inkscape:transform-center-y="0.0096876552"
   transform="matrix(0,1.4349644,-1.4349644,0,273.61678,802.22214)" /><path
   fill="ffffff"
   sodipodi:type="star"
   id="path3754-5"
   sodipodi:sides="3"
   sodipodi:cx="-373.81659"
   sodipodi:cy="-211.05937"
   sodipodi:r1="61.649868"
   sodipodi:r2="30.824934"
   sodipodi:arg1="2.6177748"
   sodipodi:arg2="3.6649724"
   inkscape:flatsided="false"
   inkscape:rounded="0"
   inkscape:randomized="0"
   d="m -427.20019,-180.22274 26.68505,-46.24325 26.68504,-46.24325 26.70531,46.23155 26.7053,46.23155 -53.39035,0.0117 z"
   inkscape:transform-center-x="22.107951"
   inkscape:transform-center-y="0.0096876552"
   transform="matrix(0,1.4349644,1.4349644,0,391.32805,799.2454)" /><path
   style="fill:#ffff20;opacity:0;fill-opacity:1;stroke:#000000;stroke-opacity:1"
   d="m 311.04102,123.42578 -3.52735,0.79492 c -11.24754,2.53703 -17.57811,4.49732 -25.70898,7.96289 -2.94185,1.25389 -8.54815,4.0704 -11.15625,5.60352 -11.02542,6.48105 -19.51652,14.49879 -24.78711,23.4082 -3.6745,6.21136 -6.10789,13.38469 -6.78125,19.98242 -0.093,0.91088 -0.16595,11.34724 -0.21485,30.7793 -0.062,24.62557 -0.0455,29.43699 0.10352,29.62109 0.47652,0.58879 14.1683,4.41612 24.52539,6.85547 17.93317,4.22371 32.59176,6.44936 56.11133,8.51953 0.28876,0.0254 1.51542,0.0563 2.72461,0.0684 l 2.19726,0.0215 v -66.80859 -66.8086 h -6.74414 z"
   id="path1001" /><path
   style="fill:#ffff20;opacity:0;fill-opacity:1;stroke:#000000;stroke-opacity:1"
   d="m 290.63672,182.14844 c 1.05716,-0.0192 1.74073,0.18488 3.00781,0.4414 0.87858,0.55987 2.02494,0.11786 2.89649,0.65625 1.5024,0.92811 0.48531,1.15668 1.24023,0.9336 0.52025,0.34609 1.07479,0.64601 1.56055,1.03906 3.0044,2.43095 5.03824,5.96775 7.03125,9.18555 2.65249,4.28256 1.95331,2.92111 3.375,7.0664 -0.0469,0.70842 0.19977,1.5039 -0.14063,2.12696 -0.27209,0.49803 -0.7119,0.88756 -1.19336,1.21679 0.004,0.16637 -0.007,0.33083 -0.0703,0.48438 -0.8038,1.94964 -2.08806,3.05227 -3.625,4.35937 -1.63322,1.38898 -5.10148,3.99206 -6.63281,4.80664 -1.78659,0.95036 -3.73814,1.55104 -5.60742,2.32618 -2.08138,0.39746 -5.05727,1.63728 -7.14454,-0.01 -1.22278,-0.96477 -1.68803,-3.38923 -2.32226,-4.74023 -0.74523,-1.58745 -0.91575,-1.6373 -1.94141,-2.7754 -3.05797,-1.80021 -4.54665,-5.18464 -5.95312,-8.27539 -1.96029,-4.30778 -1.9024,-4.58077 -2.97461,-8.49218 0.0402,-0.58365 -0.35539,-1.4125 0.12109,-1.75196 0.38508,-0.27433 0.8332,-0.45389 1.29883,-0.58789 0.28903,-0.84929 0.95314,-1.37813 2.16797,-1.61718 0.34432,-0.0677 0.6992,0.0617 1.04883,0.0918 1.79243,0.15414 0.75514,1.13528 -0.33985,2.04297 0.0141,0.0273 0.0287,0.0532 0.043,0.0801 -0.0315,-0.029 -0.0602,-0.0316 -0.0898,-0.0391 -0.57528,0.47507 -1.1496,0.92414 -1.33594,1.2207 0.29103,-0.19242 0.58383,-0.38211 0.86914,-0.58203 -0.0664,0.058 -0.13286,0.11586 -0.19922,0.17383 0.0747,0.28085 0.11105,0.41866 0.17383,0.6582 0.37877,-0.44239 0.74625,-0.89628 1.11523,-1.34766 -0.002,-0.009 -0.002,-0.0122 -0.004,-0.0215 0.003,0.006 0.003,0.0119 0.006,0.0176 0.71835,-0.87875 1.44018,-1.75333 2.23633,-2.56055 2.73665,-2.77471 6.15742,-5.49331 10.16601,-6.02734 0.47067,-0.0627 0.86441,-0.0932 1.2168,-0.0996 z"
   id="path999" /><path
   style="fill:#ffff20;opacity:0;fill-opacity:1;stroke:#000000;stroke-opacity:1"
   d="m 277.01758,190.83594 c -9e-4,0.001 -0.001,0.003 -0.002,0.004 0.0359,0.17405 0.0481,0.26771 0.0781,0.40821 0.0144,-0.1378 -0.006,-0.27699 -0.0762,-0.41211 z"
   id="path997" /><path
   style="fill:#ffff20;opacity:0;fill-opacity:1;stroke:#000000;stroke-opacity:1"
   d="m 291.01758,185.8418 c -0.21491,-0.009 -0.45279,-0.004 -0.73438,0.0176 -4.8353,0.37104 -8.71173,5.3445 -11.52929,8.70117 -0.59766,0.71201 -1.22729,1.09056 -1.79883,1.21484 0.30306,0.82613 0.69558,1.773 1.47656,3.54102 0.98318,2.22579 1.68519,4.02949 3.25,5.73828 0.37688,0.41156 1.83806,1.50783 2.20898,1.79492 1.40055,1.69011 1.59778,1.72869 2.60157,3.89648 0.34514,0.74539 0.57017,1.54222 0.85547,2.3125 -0.21685,0.09 -0.69704,0.0394 -0.65039,0.26953 0.29031,1.43205 5.66936,0.4108 4.38281,0.0234 1.6362,-0.64984 3.35053,-1.1288 4.9082,-1.94922 1.50936,-0.79497 4.64646,-3.16927 6.23828,-4.49609 0.54985,-0.45831 1.0692,-0.95337 1.60352,-1.42969 0.26926,-0.12534 0.56067,-0.20854 0.80664,-0.375 0.0744,-0.0503 0.0744,-0.16423 0.11133,-0.24609 -0.0653,-0.2383 -0.28379,-0.48414 -0.19532,-0.71485 0.462,-1.2047 0.6444,-2.13833 1.38868,-2.42968 -0.66517,-2.20654 -0.49681,-1.73714 -2.68946,-5.29492 -1.55241,-2.51894 -3.58593,-6.1007 -5.98633,-8.11914 -0.37142,-0.31235 -0.80105,-0.54962 -1.20117,-0.82422 -0.4225,-0.27496 -0.85979,-0.52923 -1.26953,-0.82227 -0.72147,-0.10395 -1.70187,-0.3716 -1.96094,-0.4375 -0.7387,-0.19347 -1.17169,-0.34414 -1.8164,-0.37109 z"
   id="path995" /><path
   style="fill:#ffff20;opacity:0;fill-opacity:1;stroke:#000000;stroke-opacity:1"
   d="m 276.48828,190.76367 c 0.141,0.13463 0.27582,0.4149 0.19727,0.31641 -0.0728,-0.0912 -0.13603,-0.20149 -0.19727,-0.31641 z"
   id="path993" /><path
   style="fill:#ffff20;opacity:0;fill-opacity:1;stroke:#000000;stroke-opacity:1"
   d="m 306.17188,202.4668 c -0.0816,0.16872 -0.16111,0.33751 -0.22461,0.51367 -0.0502,0.13935 0.18358,-0.23142 0.27539,-0.34766 -0.0242,-0.0776 -0.0283,-0.093 -0.0508,-0.16601 z"
   id="path991" /><path
   style="fill:#ffff20;opacity:0;fill-opacity:1;stroke:#000000;stroke-opacity:1"
   d="m 306.43164,205.32031 c -0.0781,0.005 0.17496,0.0676 0.23438,0.0137 -0.078,-0.005 -0.15883,-0.0185 -0.23438,-0.0137 z"
   id="path965" /><path
   style="fill:#ffff20;opacity:0;fill-opacity:1;stroke:#000000;stroke-opacity:1"
   d="m 284.74023,182.7793 c -1.49041,-0.0887 -2.9786,1.0144 -1.83984,2.31054 0.99097,-0.72131 2.04381,-1.34928 3.15039,-1.84375 -0.38348,-0.29014 -0.84562,-0.4391 -1.31055,-0.46679 z"
   id="path1009" /><path
   style="fill:#ffff20;opacity:0;fill-opacity:1;stroke:#000000;stroke-opacity:1"
   d="m 287.03516,186.81055 c -1.43968,0.72047 -2.76259,1.78651 -3.98633,2.96484 -0.17057,1.18681 -0.32571,2.3745 -0.18164,3.56836 0.0186,0.91348 0.10109,1.81751 0.11719,2.72852 0.04,2.26777 -0.0976,4.53292 -0.27149,6.79296 v 0.002 c -0.28189,3.66434 3.41292,4.0001 3.69727,0.33593 0.18406,-2.37179 0.32395,-4.74893 0.28515,-7.1289 -0.0152,-0.93521 -0.10313,-1.85578 -0.11523,-2.79297 -0.12961,-2.1782 0.38926,-4.31069 0.45508,-6.4707 z"
   id="path4523" /><path
   style="fill:#ffff20;opacity:0;fill-opacity:1;stroke:#000000;stroke-opacity:1"
   d="m 310.92969,123.42578 -4.25977,0.97266 c -8.45125,1.93078 -13.04168,3.23342 -18.59375,5.27539 -7.80838,2.87182 -15.30614,6.57281 -21.30078,10.51562 -15.73992,10.35249 -25.00235,23.53767 -27.50391,39.15039 -0.31364,1.95752 -0.4265,12.01297 -0.4414,39.58204 -0.01,17.77753 0.0224,22.49608 0.15234,22.6621 0.56963,0.72794 17.62997,5.364 29.07031,7.9004 15.85559,3.51527 27.15375,5.19173 49.125,7.2871 1.40772,0.13425 3.6376,0.24982 4.95508,0.25782 l 2.39453,0.0137 v -66.80859 -66.8086 h -6.79882 z"
   id="path1027" /><path
   style="fill:#ffff20;opacity:0;fill-opacity:1;stroke:#000000;stroke-opacity:1"
   d="m 290.63672,182.14844 c 1.05716,-0.0192 1.74073,0.18488 3.00781,0.4414 0.87858,0.55987 2.02494,0.11786 2.89649,0.65625 1.5024,0.92811 0.48531,1.15668 1.24023,0.9336 0.52025,0.34609 1.07479,0.64601 1.56055,1.03906 3.0044,2.43095 5.03824,5.96775 7.03125,9.18555 2.65249,4.28256 1.95331,2.92111 3.375,7.0664 -0.0469,0.70842 0.19977,1.5039 -0.14063,2.12696 -0.27209,0.49803 -0.7119,0.88756 -1.19336,1.21679 0.004,0.16637 -0.007,0.33083 -0.0703,0.48438 -0.8038,1.94964 -2.08806,3.05227 -3.625,4.35937 -1.63322,1.38898 -5.10148,3.99206 -6.63281,4.80664 -1.78659,0.95036 -3.73814,1.55104 -5.60742,2.32618 -2.08138,0.39746 -5.05727,1.63728 -7.14454,-0.01 -1.22278,-0.96477 -1.68803,-3.38923 -2.32226,-4.74023 -0.74523,-1.58745 -0.91575,-1.6373 -1.94141,-2.7754 -3.05797,-1.80021 -4.54665,-5.18464 -5.95312,-8.27539 -1.96029,-4.30778 -1.9024,-4.58077 -2.97461,-8.49218 0.0402,-0.58365 -0.35539,-1.4125 0.12109,-1.75196 0.38508,-0.27433 0.8332,-0.45389 1.29883,-0.58789 0.28903,-0.84929 0.95314,-1.37813 2.16797,-1.61718 0.34432,-0.0677 0.6992,0.0617 1.04883,0.0918 1.79243,0.15414 0.75514,1.13528 -0.33985,2.04297 0.0141,0.0273 0.0287,0.0532 0.043,0.0801 -0.0315,-0.029 -0.0602,-0.0316 -0.0898,-0.0391 -0.57528,0.47507 -1.1496,0.92414 -1.33594,1.2207 0.29103,-0.19242 0.58383,-0.38211 0.86914,-0.58203 -0.0664,0.058 -0.13286,0.11586 -0.19922,0.17383 0.0747,0.28085 0.11105,0.41866 0.17383,0.6582 0.37877,-0.44239 0.74625,-0.89628 1.11523,-1.34766 -0.002,-0.009 -0.002,-0.0122 -0.004,-0.0215 0.003,0.006 0.003,0.0119 0.006,0.0176 0.71835,-0.87875 1.44018,-1.75333 2.23633,-2.56055 2.73665,-2.77471 6.15742,-5.49331 10.16601,-6.02734 0.47067,-0.0627 0.86441,-0.0932 1.2168,-0.0996 z"
   id="path1025" /><path
   style="fill:#ffff20;opacity:0;fill-opacity:1;stroke:#000000;stroke-opacity:1"
   d="m 277.01758,190.83594 c -9e-4,0.001 -0.001,0.003 -0.002,0.004 0.0359,0.17405 0.0481,0.26771 0.0781,0.40821 0.0144,-0.1378 -0.006,-0.27699 -0.0762,-0.41211 z"
   id="path1023" /><path
   style="fill:#ffff20;opacity:0;fill-opacity:1;stroke:#000000;stroke-opacity:1"
   d="m 291.01758,185.8418 c -0.21491,-0.009 -0.45279,-0.004 -0.73438,0.0176 -4.8353,0.37104 -8.71173,5.3445 -11.52929,8.70117 -0.59766,0.71201 -1.22729,1.09056 -1.79883,1.21484 0.30306,0.82613 0.69558,1.773 1.47656,3.54102 0.98318,2.22579 1.68519,4.02949 3.25,5.73828 0.37688,0.41156 1.83806,1.50783 2.20898,1.79492 1.40055,1.69011 1.59778,1.72869 2.60157,3.89648 0.34514,0.74539 0.57017,1.54222 0.85547,2.3125 -0.21685,0.09 -0.69704,0.0394 -0.65039,0.26953 0.29031,1.43205 5.66936,0.4108 4.38281,0.0234 1.6362,-0.64984 3.35053,-1.1288 4.9082,-1.94922 1.50936,-0.79497 4.64646,-3.16927 6.23828,-4.49609 0.54985,-0.45831 1.0692,-0.95337 1.60352,-1.42969 0.26926,-0.12534 0.56067,-0.20854 0.80664,-0.375 0.0744,-0.0503 0.0744,-0.16423 0.11133,-0.24609 -0.0653,-0.2383 -0.28379,-0.48414 -0.19532,-0.71485 0.462,-1.2047 0.6444,-2.13833 1.38868,-2.42968 -0.66517,-2.20654 -0.49681,-1.73714 -2.68946,-5.29492 -1.55241,-2.51894 -3.58593,-6.1007 -5.98633,-8.11914 -0.37142,-0.31235 -0.80105,-0.54962 -1.20117,-0.82422 -0.4225,-0.27496 -0.85979,-0.52923 -1.26953,-0.82227 -0.72147,-0.10395 -1.70187,-0.3716 -1.96094,-0.4375 -0.7387,-0.19347 -1.17169,-0.34414 -1.8164,-0.37109 z"
   id="path1021" /><path
   style="fill:#ffff20;opacity:0;fill-opacity:1;stroke:#000000;stroke-opacity:1"
   d="m 276.48828,190.76367 c 0.141,0.13463 0.27582,0.4149 0.19727,0.31641 -0.0728,-0.0912 -0.13603,-0.20149 -0.19727,-0.31641 z"
   id="path1019" /><path
   style="fill:#ffff20;opacity:0;fill-opacity:1;stroke:#000000;stroke-opacity:1"
   d="m 306.17188,202.4668 c -0.0816,0.16872 -0.16111,0.33751 -0.22461,0.51367 -0.0502,0.13935 0.18358,-0.23142 0.27539,-0.34766 -0.0242,-0.0776 -0.0283,-0.093 -0.0508,-0.16601 z"
   id="path1017" /><path
   style="fill:#ffff20;opacity:0;fill-opacity:1;stroke:#000000;stroke-opacity:1"
   d="m 306.43164,205.32031 c -0.0781,0.005 0.17496,0.0676 0.23438,0.0137 -0.078,-0.005 -0.15883,-0.0185 -0.23438,-0.0137 z"
   id="path973" /><path
   style="fill:#ffff20;opacity:0;fill-opacity:1;stroke:#000000;stroke-opacity:1"
   d="m 284.74023,182.7793 c -1.49041,-0.0887 -2.9786,1.0144 -1.83984,2.31054 0.99097,-0.72131 2.04381,-1.34928 3.15039,-1.84375 -0.38348,-0.29014 -0.84562,-0.4391 -1.31055,-0.46679 z"
   id="path1035" /><path
   style="fill:#ffff20;opacity:0;fill-opacity:1;stroke:#000000;stroke-opacity:1"
   d="m 287.03516,186.81055 c -1.43968,0.72047 -2.76259,1.78651 -3.98633,2.96484 -0.17057,1.18681 -0.32571,2.3745 -0.18164,3.56836 0.0186,0.91348 0.10109,1.81751 0.11719,2.72852 0.04,2.26777 -0.0976,4.53292 -0.27149,6.79296 v 0.002 c -0.28189,3.66434 3.41292,4.0001 3.69727,0.33593 0.18406,-2.37179 0.32395,-4.74893 0.28515,-7.1289 -0.0152,-0.93521 -0.10313,-1.85578 -0.11523,-2.79297 -0.12961,-2.1782 0.38926,-4.31069 0.45508,-6.4707 z"
   id="path4525" /><path
   style="opacity:0;fill:#ffff20;fill-opacity:1;stroke:#000000;stroke-width:0.37124756;stroke-opacity:1"
   d="m 322.38281,122.24023 c -0.3089,0.007 -0.70485,0.0446 -1.10937,0.0859 -0.59581,0.0609 -1.26087,0.14485 -2.09571,0.27735 -1.22511,0.19443 -3.82676,0.51515 -5.7832,0.71093 -0.61006,0.0611 -1.28986,0.14815 -2.02539,0.25977 -1.47106,0.22324 -3.16634,0.54084 -4.98437,0.92969 -0.90902,0.19442 -1.8496,0.40811 -2.80665,0.63476 -1.91406,0.45312 -3.89838,0.96437 -5.8496,1.50977 -1.95123,0.54554 -3.86855,1.12403 -5.6504,1.71289 -1.66897,0.55156 -3.30389,1.12738 -4.90234,1.72656 -0.79923,0.2996 -1.58777,0.6047 -2.36914,0.91602 l -0.002,0.002 c -1.32544,0.52808 -2.61911,1.07542 -3.89258,1.63672 -0.45458,0.20036 -0.90562,0.40288 -1.35352,0.60742 -0.005,0.002 -0.009,0.004 -0.0137,0.006 -0.006,0.003 -0.0118,0.005 -0.0176,0.008 -0.0118,0.005 -0.0234,0.0102 -0.0351,0.0156 -0.0278,0.0127 -0.0542,0.0263 -0.082,0.0391 -0.96149,0.44081 -1.90758,0.89165 -2.83789,1.35156 -1.19715,0.59183 -2.36877,1.19933 -3.51368,1.82227 -0.002,0.001 -0.004,0.003 -0.006,0.004 -0.003,0.002 -0.007,0.002 -0.01,0.004 -0.008,0.004 -0.0154,0.009 -0.0234,0.0137 -1.11626,0.60802 -2.2134,1.22622 -3.2793,1.86328 -0.68889,0.41174 -1.36557,0.83023 -2.0332,1.25391 -0.0103,0.007 -0.0209,0.013 -0.0312,0.0195 -0.18526,0.11768 -0.36522,0.23883 -0.54883,0.35742 -0.0218,0.0141 -0.0427,0.0289 -0.0645,0.043 -0.46838,0.30311 -0.93499,0.60699 -1.39258,0.91602 -0.22925,0.15482 -0.45315,0.31244 -0.67969,0.46875 -0.41248,0.28459 -0.82313,0.56992 -1.22656,0.85937 -0.005,0.004 -0.0104,0.008 -0.0156,0.0117 -0.23672,0.16993 -0.46955,0.34208 -0.70313,0.51367 -0.39013,0.2866 -0.77685,0.57403 -1.1582,0.86524 -0.003,0.003 -0.006,0.005 -0.01,0.008 -0.23813,0.18191 -0.47428,0.36513 -0.70898,0.54883 -0.3624,0.28363 -0.72005,0.56956 -1.07422,0.85742 -0.24495,0.19909 -0.48947,0.39851 -0.73047,0.59961 -0.32444,0.27073 -0.64369,0.54401 -0.96094,0.81836 -0.0129,0.0111 -0.0262,0.022 -0.0391,0.0332 -0.23047,0.1996 -0.4628,0.39811 -0.68945,0.59961 l -0.002,0.002 c -0.34132,0.30346 -0.67325,0.6122 -1.00586,0.91993 -0.003,0.003 -0.007,0.007 -0.01,0.01 -0.21163,0.19587 -0.42667,0.39029 -0.63477,0.58789 -0.5201,0.49385 -1.0314,0.99161 -1.52929,1.4961 -0.61378,0.62192 -1.20349,1.25473 -1.78321,1.89257 -0.0102,0.0112 -0.0212,0.02 -0.0312,0.0312 -0.16829,0.18541 -0.33459,0.37381 -0.5,0.56055 -0.006,0.006 -0.0101,0.0114 -0.0156,0.0176 -0.57187,0.64628 -1.13486,1.29696 -1.67188,1.95898 -0.47161,0.5814 -0.92463,1.17036 -1.36914,1.76367 -0.14988,0.20009 -0.29462,0.40209 -0.4414,0.60352 -0.28615,0.39264 -0.56748,0.78785 -0.8418,1.18555 -0.16251,0.23562 -0.32408,0.47159 -0.48242,0.70898 -0.27253,0.40855 -0.53675,0.82066 -0.79688,1.23438 -0.13094,0.20827 -0.26479,0.41542 -0.39257,0.625 -0.37641,0.61727 -0.74292,1.23875 -1.0918,1.86718 -0.40468,0.72893 -0.78306,1.46726 -1.15039,2.21094 -0.001,0.003 -0.003,0.007 -0.004,0.01 -0.10229,0.20716 -0.20335,0.41476 -0.30273,0.62304 -0.004,0.008 -0.008,0.0158 -0.0117,0.0234 -0.35298,0.74084 -0.6958,1.48529 -1.01172,2.24024 -0.48535,1.15987 -0.92734,2.33695 -1.32422,3.52929 -0.24351,0.7316 -0.45518,1.36211 -0.64844,1.95899 -0.0623,0.19268 -0.12414,0.40597 -0.18164,0.59179 -0.14357,0.46446 -0.27486,0.93849 -0.39062,1.39844 -0.0554,0.22023 -0.11648,0.44928 -0.16602,0.67774 -0.0295,0.13634 -0.0584,0.28285 -0.0859,0.42382 -0.0928,0.4747 -0.1796,0.9688 -0.25196,1.52735 -0.10453,0.8068 -0.18847,1.73903 -0.25781,2.84375 -7.6e-4,0.0121 -9.5e-4,0.0191 -0.002,0.0312 -6.6e-4,0.0106 -9.6e-4,0.0167 -0.002,0.0273 -0.002,0.04 -0.005,0.0709 -0.008,0.11133 v 0.002 c -0.003,0.045 -0.003,0.11653 -0.006,0.16211 -0.0684,1.17501 -0.12266,2.54276 -0.16406,4.20508 -1.1e-4,0.005 1.2e-4,0.007 0,0.0117 -8e-5,0.003 8e-5,0.005 0,0.008 -2.8e-4,0.0115 2.9e-4,0.0333 0,0.0449 -0.0526,2.13379 -0.0869,5.34077 -0.11328,8.57032 -0.0352,4.40474 -0.0609,9.68339 -0.0918,16.80859 l -0.13477,31.04883 2.52344,0.76367 c 2.27245,0.68672 4.5325,1.33886 6.78711,1.97461 0.39548,0.1115 0.79243,0.22598 1.1875,0.33594 2.13307,0.59377 4.26101,1.16315 6.38672,1.71289 0.44119,0.11409 0.88317,0.22762 1.32422,0.33984 2.17077,0.5524 4.34147,1.0855 6.51367,1.59375 0.30099,0.0704 0.60321,0.13745 0.9043,0.20703 2.30269,0.53221 4.60758,1.04666 6.92187,1.53125 2.86765,0.60046 5.7474,1.16493 8.64844,1.69532 2.32491,0.42506 4.66907,0.8211 7.02539,1.20312 0.2548,0.0413 0.50844,0.0842 0.76367,0.125 0.0775,0.0127 0.1547,0.0267 0.23243,0.0391 0.006,9.2e-4 0.0118,9.6e-4 0.0176,0.002 2.26686,0.3609 4.55438,0.70235 6.85938,1.02539 0.0111,0.002 0.0221,0.002 0.0332,0.004 0.36958,0.0517 0.74066,0.1035 1.11133,0.1543 0.027,0.004 0.055,0.006 0.082,0.01 2.31091,0.31627 4.64179,0.6162 7,0.89648 0.29538,0.0351 0.59444,0.069 0.89063,0.10352 2.5011,0.29178 5.02375,0.56876 7.58789,0.82226 3.77744,0.37344 8.24515,0.69896 9.92968,0.72266 l 3.06446,0.043 -0.006,-66.54688 c -0.003,-36.60036 -0.1054,-66.92144 -0.22852,-67.38086 -0.0366,-0.13664 -0.0983,-0.25091 -0.17578,-0.35351 -0.0553,-0.0731 -0.11888,-0.14108 -0.19922,-0.19727 -0.0175,-0.0123 -0.0398,-0.0217 -0.0586,-0.0332 -0.0601,-0.0366 -0.13496,-0.0653 -0.20899,-0.0937 -0.1072,-0.0414 -0.23355,-0.0729 -0.37304,-0.0977 -0.0155,-0.003 -0.0318,-0.005 -0.0469,-0.008 -0.0202,-0.003 -0.0398,-0.008 -0.0586,-0.0117 -0.0297,-0.004 -0.0528,-0.0102 -0.084,-0.0137 -0.21413,-0.024 -0.4535,-0.0378 -0.74023,-0.0312 z"
   id="path1053" /><path
   style="opacity:0;fill:#ffff20;fill-opacity:1;stroke:#000000;stroke-width:0.37124756;stroke-opacity:1"
   d="m 290.63672,182.14844 c 1.05716,-0.0192 1.74073,0.18488 3.00781,0.4414 0.87858,0.55987 2.02494,0.11786 2.89649,0.65625 1.5024,0.92811 0.48531,1.15668 1.24023,0.9336 0.52025,0.34609 1.07479,0.64601 1.56055,1.03906 3.0044,2.43095 5.03824,5.96775 7.03125,9.18555 2.65249,4.28256 1.95331,2.92111 3.375,7.0664 -0.0469,0.70842 0.19977,1.5039 -0.14063,2.12696 -0.27209,0.49803 -0.7119,0.88756 -1.19336,1.21679 0.004,0.16637 -0.007,0.33083 -0.0703,0.48438 -0.8038,1.94964 -2.08806,3.05227 -3.625,4.35937 -1.63322,1.38898 -5.10148,3.99206 -6.63281,4.80664 -1.78659,0.95036 -3.73814,1.55104 -5.60742,2.32618 -2.08138,0.39746 -5.05727,1.63728 -7.14454,-0.01 -1.22278,-0.96477 -1.68803,-3.38923 -2.32226,-4.74023 -0.74523,-1.58745 -0.91575,-1.6373 -1.94141,-2.7754 -3.05797,-1.80021 -4.54665,-5.18464 -5.95312,-8.27539 -1.96029,-4.30778 -1.9024,-4.58077 -2.97461,-8.49218 0.0402,-0.58365 -0.35539,-1.4125 0.12109,-1.75196 0.38508,-0.27433 0.8332,-0.45389 1.29883,-0.58789 0.28903,-0.84929 0.95314,-1.37813 2.16797,-1.61718 0.34432,-0.0677 0.6992,0.0617 1.04883,0.0918 1.79243,0.15414 0.75514,1.13528 -0.33985,2.04297 0.0141,0.0273 0.0287,0.0532 0.043,0.0801 -0.0315,-0.029 -0.0602,-0.0316 -0.0898,-0.0391 -0.57528,0.47507 -1.1496,0.92414 -1.33594,1.2207 0.29103,-0.19242 0.58383,-0.38211 0.86914,-0.58203 -0.0664,0.058 -0.13286,0.11586 -0.19922,0.17383 0.0747,0.28085 0.11105,0.41866 0.17383,0.6582 0.37877,-0.44239 0.74625,-0.89628 1.11523,-1.34766 -0.002,-0.009 -0.002,-0.0122 -0.004,-0.0215 0.003,0.006 0.003,0.0119 0.006,0.0176 0.71835,-0.87875 1.44018,-1.75333 2.23633,-2.56055 2.73665,-2.77471 6.15742,-5.49331 10.16601,-6.02734 0.47067,-0.0627 0.86441,-0.0932 1.2168,-0.0996 z"
   id="path1051" /><path
   style="opacity:0;fill:#ffff20;fill-opacity:1;stroke:#000000;stroke-width:0.37124756;stroke-opacity:1"
   d="m 277.01758,190.83594 c -9e-4,0.001 -0.001,0.003 -0.002,0.004 0.0359,0.17405 0.0481,0.26771 0.0781,0.40821 0.0144,-0.1378 -0.006,-0.27699 -0.0762,-0.41211 z"
   id="path1049" /><path
   style="opacity:0;fill:#ffff20;fill-opacity:1;stroke:#000000;stroke-width:0.37124756;stroke-opacity:1"
   d="m 291.01758,185.8418 c -0.21491,-0.009 -0.45279,-0.004 -0.73438,0.0176 -4.8353,0.37104 -8.71173,5.3445 -11.52929,8.70117 -0.59766,0.71201 -1.22729,1.09056 -1.79883,1.21484 0.30306,0.82613 0.69558,1.773 1.47656,3.54102 0.98318,2.22579 1.68519,4.02949 3.25,5.73828 0.37688,0.41156 1.83806,1.50783 2.20898,1.79492 1.40055,1.69011 1.59778,1.72869 2.60157,3.89648 0.34514,0.74539 0.57017,1.54222 0.85547,2.3125 -0.21685,0.09 -0.69704,0.0394 -0.65039,0.26953 0.29031,1.43205 5.66936,0.4108 4.38281,0.0234 1.6362,-0.64984 3.35053,-1.1288 4.9082,-1.94922 1.50936,-0.79497 4.64646,-3.16927 6.23828,-4.49609 0.54985,-0.45831 1.0692,-0.95337 1.60352,-1.42969 0.26926,-0.12534 0.56067,-0.20854 0.80664,-0.375 0.0744,-0.0503 0.0744,-0.16423 0.11133,-0.24609 -0.0653,-0.2383 -0.28379,-0.48414 -0.19532,-0.71485 0.462,-1.2047 0.6444,-2.13833 1.38868,-2.42968 -0.66517,-2.20654 -0.49681,-1.73714 -2.68946,-5.29492 -1.55241,-2.51894 -3.58593,-6.1007 -5.98633,-8.11914 -0.37142,-0.31235 -0.80105,-0.54962 -1.20117,-0.82422 -0.4225,-0.27496 -0.85979,-0.52923 -1.26953,-0.82227 -0.72147,-0.10395 -1.70187,-0.3716 -1.96094,-0.4375 -0.7387,-0.19347 -1.17169,-0.34414 -1.8164,-0.37109 z"
   id="path1047" /><path
   style="opacity:0;fill:#ffff20;fill-opacity:1;stroke:#000000;stroke-width:0.37124756;stroke-opacity:1"
   d="m 276.48828,190.76367 c 0.141,0.13463 0.27582,0.4149 0.19727,0.31641 -0.0728,-0.0912 -0.13603,-0.20149 -0.19727,-0.31641 z"
   id="path1045" /><path
   style="opacity:0;fill:#ffff20;fill-opacity:1;stroke:#000000;stroke-width:0.37124756;stroke-opacity:1"
   d="m 306.17188,202.4668 c -0.0816,0.16872 -0.16111,0.33751 -0.22461,0.51367 -0.0502,0.13935 0.18358,-0.23142 0.27539,-0.34766 -0.0242,-0.0776 -0.0283,-0.093 -0.0508,-0.16601 z"
   id="path1043" /><path
   style="opacity:0;fill:#ffff20;fill-opacity:1;stroke:#000000;stroke-width:0.37124756;stroke-opacity:1"
   d="m 306.43164,205.32031 c -0.0781,0.005 0.17496,0.0676 0.23438,0.0137 -0.078,-0.005 -0.15883,-0.0185 -0.23438,-0.0137 z"
   id="path981" /><path
   style="opacity:0;fill:#ffff20;fill-opacity:1;stroke:#000000;stroke-width:0.37124756;stroke-opacity:1"
   d="m 284.74023,182.7793 c -1.49041,-0.0887 -2.9786,1.0144 -1.83984,2.31054 0.99097,-0.72131 2.04381,-1.34928 3.15039,-1.84375 -0.38348,-0.29014 -0.84562,-0.4391 -1.31055,-0.46679 z"
   id="path1061" /><path
   style="opacity:0;fill:#ffff20;fill-opacity:1;stroke:#000000;stroke-width:0.37124756;stroke-opacity:1"
   d="m 287.03516,186.81055 c -1.43968,0.72047 -2.76259,1.78651 -3.98633,2.96484 -0.17057,1.18681 -0.32571,2.3745 -0.18164,3.56836 0.0186,0.91348 0.10109,1.81751 0.11719,2.72852 0.04,2.26777 -0.0976,4.53292 -0.27149,6.79296 v 0.002 c -0.28189,3.66434 3.41292,4.0001 3.69727,0.33593 0.18406,-2.37179 0.32395,-4.74893 0.28515,-7.1289 -0.0152,-0.93521 -0.10313,-1.85578 -0.11523,-2.79297 -0.12961,-2.1782 0.38926,-4.31069 0.45508,-6.4707 z"
   id="path945" /></svg>