<?xml version="1.0" encoding="UTF-8" standalone="no"?>
<!-- Generator: Adobe Illustrator 16.0.0, SVG Export Plug-In . SVG Version: 6.00 Build 0)  -->

<svg
   xmlns:dc="http://purl.org/dc/elements/1.1/"
   xmlns:cc="http://creativecommons.org/ns#"
   xmlns:rdf="http://www.w3.org/1999/02/22-rdf-syntax-ns#"
   xmlns:svg="http://www.w3.org/2000/svg"
   xmlns="http://www.w3.org/2000/svg"
   xmlns:sodipodi="http://sodipodi.sourceforge.net/DTD/sodipodi-0.dtd"
   xmlns:inkscape="http://www.inkscape.org/namespaces/inkscape"
   version="1.1"
   id="Capa_1"
   x="0px"
   y="0px"
   width="450.47px"
   height="450.47px"
   viewBox="0 0 450.47 450.47"
   style="enable-background:new 0 0 450.47 450.47;"
   xml:space="preserve"
   sodipodi:docname="mouse-right-button.svg"
   inkscape:version="0.92.4 (5da689c313, 2019-01-14)"><metadata
   id="metadata3883"><rdf:RDF><cc:Work
       rdf:about=""><dc:format>image/svg+xml</dc:format><dc:type
         rdf:resource="http://purl.org/dc/dcmitype/StillImage" /><dc:title></dc:title></cc:Work></rdf:RDF></metadata><defs
   id="defs3881" /><sodipodi:namedview
   pagecolor="#000"
   bordercolor="#666666"
   borderopacity="1"
   objecttolerance="10"
   gridtolerance="10"
   guidetolerance="10"
   inkscape:pageopacity="0"
   inkscape:pageshadow="2"
   inkscape:window-width="1920"
   inkscape:window-height="1051"
   id="namedview3879"
   showgrid="false"
   inkscape:zoom="1.9046773"
   inkscape:cx="225.235"
   inkscape:cy="225.235"
   inkscape:window-x="-9"
   inkscape:window-y="-9"
   inkscape:window-maximized="1"
   inkscape:current-layer="Capa_1" />
<g
   id="g3846"
   transform="matrix(-1,0,0,1,450.472,0)">
	<path fill="#000"
   d="m 237.298,99.533 c -0.301,-0.34 -0.562,-0.677 -0.916,-0.999 -3.937,-3.535 -4.043,-2.491 0.266,-6.463 3.192,-2.929 7.063,-5.222 10.574,-7.755 C 256.508,77.605 262.62,68.617 266.751,57.96 276.02,34.033 248.707,17.503 235,3.344 c -9.904,-10.247 -25.496,5.382 -15.604,15.604 7.643,7.912 17.489,14.328 24.14,23.123 7.453,9.848 -3.901,20.712 -11.68,26.194 -12.026,8.473 -22.423,19.727 -20.02,31.794 -53.971,5.042 -103.87,34.623 -103.87,86.767 V 333.2 c 0,64.664 52.603,117.27 117.27,117.27 64.663,0 117.27,-52.605 117.27,-117.27 V 186.817 c 0.004,-56.929 -52.963,-84.5 -105.208,-87.284 z m -107.254,87.284 c 0,-38.707 42.017,-61.117 85.535,-64.841 v 135.005 c -39.697,-1.998 -71.928,-11.042 -85.535,-15.457 z m 190.389,146.377 c 0,52.5 -42.705,95.199 -95.192,95.199 -52.488,0 -95.196,-42.699 -95.196,-95.199 V 264.73 c 19.713,5.958 56.817,14.995 100.676,14.995 28.088,0 58.93,-3.759 89.713,-14.352 v 67.821 z m 0,-91.298 c -27.916,10.675 -56.424,14.849 -82.78,15.415 v -135.66 c 42.569,2.553 82.78,22.969 82.78,65.175 z M 206.072,133.429 v 111.973 c -17.153,3.027 -67.583,-11.094 -67.583,-11.094 -7.44,-78.496 21.94,-92.303 67.583,-100.879 z"
   id="path3844"
   inkscape:connector-curvature="0" />
</g>
<g
   id="g3848">
</g>
<g
   id="g3850">
</g>
<g
   id="g3852">
</g>
<g
   id="g3854">
</g>
<g
   id="g3856">
</g>
<g
   id="g3858">
</g>
<g
   id="g3860">
</g>
<g
   id="g3862">
</g>
<g
   id="g3864">
</g>
<g
   id="g3866">
</g>
<g
   id="g3868">
</g>
<g
   id="g3870">
</g>
<g
   id="g3872">
</g>
<g
   id="g3874">
</g>
<g
   id="g3876">
</g>
</svg>